# xmcd CD database file
#
# Track frame offsets:
#	150
#	31699
#	61099
#	78712
#	104358
#	136579
#	161861
#	191382
#	219822
#
# Disc length: 3624 seconds
#
# Revision: 0
# Processed by: cddbd v1.5.1PL0 Copyright (c) Steve Scherf et al.
# Submitted via: CDex 1.51
#
DISCID=6a0e2609
DTITLE=shunji takenaka - tiron 3
DYEAR=2003
DGENRE=Jazz
TTITLE0=red and blue
TTITLE1=precognition
TTITLE2=jag
TTITLE3=sundance
TTITLE4=circles
TTITLE5=ring
TTITLE6=home again
TTITLE7=romance
TTITLE8=red moon and wolf dog mountain
EXTD=YEAR: 2003
EXTT0=
EXTT1=
EXTT2=
EXTT3=
EXTT4=
EXTT5=
EXTT6=
EXTT7=
EXTT8=
PLAYORDER=
